<svg width="172" height="172" viewBox="0 0 172 172" fill="none" xmlns="http://www.w3.org/2000/svg">
<g filter="url(#filter0_b_5585_22)">
<circle cx="86.1047" cy="82.1047" r="67.1047" fill="white" fill-opacity="0.04"/>
</g>
<g filter="url(#filter1_d_5585_22)">
<rect x="62.2441" y="58.2446" width="48" height="48" rx="24" fill="white" shape-rendering="crispEdges"/>
<path d="M82.2453 74.2448C86.6635 76.4539 92.0361 81.8264 94.2452 86.2447C96.4543 90.6629 94.6635 92.4538 90.2452 90.2446C85.827 88.0355 80.4544 82.663 78.2453 78.2447C76.0362 73.8265 77.827 72.0356 82.2453 74.2448" stroke="#9841FF" stroke-width="1.59439" stroke-linecap="round" stroke-linejoin="round"/>
<path d="M90.2452 74.2446C94.6635 72.0355 96.4543 73.8264 94.2452 78.2446C92.0361 82.6628 86.6635 88.0354 82.2453 90.2445C77.827 92.4536 76.0362 90.6628 78.2453 86.2445C80.4544 81.8263 85.827 76.4537 90.2452 74.2446" stroke="#9841FF" stroke-width="1.59439" stroke-linecap="round" stroke-linejoin="round"/>
<path d="M86.6061 82.2446C86.6061 82.4516 86.4441 82.6196 86.2441 82.6196C86.0441 82.6196 85.8821 82.4516 85.8821 82.2446C85.8821 82.0376 86.0441 81.8696 86.2441 81.8696C86.4441 81.8696 86.6061 82.0376 86.6061 82.2446" stroke="#9841FF" stroke-width="2.12587" stroke-linecap="round" stroke-linejoin="round"/>
</g>
<path d="M91.1594 38.4046C90.7055 38.3407 90.3067 38.1716 89.9627 37.8975C89.6193 37.6196 89.3615 37.2773 89.1893 36.8705C89.0208 36.4643 88.9686 36.0342 89.0325 35.5804C89.0969 35.1228 89.2659 34.7239 89.5395 34.3837C89.8174 34.0403 90.1595 33.7844 90.5657 33.6159C90.9725 33.4437 91.4028 33.3895 91.8567 33.4534C92.3143 33.5179 92.7129 33.6888 93.0525 33.9661C93.3965 34.2402 93.6527 34.5804 93.8211 34.9867C93.9939 35.3897 94.0481 35.82 93.9836 36.2776C93.9197 36.7315 93.7488 37.1301 93.4709 37.4735C93.1968 37.8174 92.8563 38.0755 92.4496 38.2477C92.0471 38.4167 91.617 38.469 91.1594 38.4046Z" fill="white"/>
<path d="M122.341 42.2141L115.2 51.4014L114.123 50.5646L114.724 39.4596L114.634 39.3899L109.027 46.6034L107.914 45.7386L115.056 36.5513L116.132 37.3882L115.536 48.525L115.625 48.5947L121.246 41.3633L122.341 42.2141Z" fill="white"/>
<path d="M120.186 57.4043C119.738 56.7564 119.499 56.0812 119.469 55.3788C119.441 54.6795 119.609 54.0009 119.974 53.3432C120.341 52.6886 120.895 52.1048 121.637 51.5918C122.384 51.0746 123.131 50.7586 123.876 50.6438C124.623 50.5321 125.319 50.6126 125.964 50.8851C126.61 51.1608 127.158 51.6226 127.606 52.2705C128.054 52.9184 128.292 53.592 128.32 54.2914C128.35 54.9938 128.18 55.6734 127.81 56.3302C127.442 56.9901 126.884 57.5786 126.137 58.0959C125.395 58.6088 124.653 58.9201 123.909 59.0296C123.167 59.1422 122.472 59.0607 121.826 58.785C121.181 58.5124 120.634 58.0522 120.186 57.4043ZM121.177 56.7189C121.517 57.2111 121.924 57.5287 122.396 57.6719C122.868 57.815 123.362 57.8207 123.879 57.6888C124.396 57.557 124.894 57.3251 125.374 56.9932C125.854 56.6613 126.248 56.2757 126.556 55.8364C126.865 55.3971 127.037 54.9303 127.073 54.4358C127.108 53.9414 126.956 53.4481 126.616 52.9559C126.275 52.4637 125.867 52.1471 125.392 52.0061C124.917 51.8651 124.419 51.8617 123.899 51.9957C123.379 52.1297 122.879 52.3626 122.4 52.6945C121.92 53.0264 121.527 53.411 121.222 53.8481C120.916 54.2852 120.747 54.7499 120.715 55.2422C120.682 55.7345 120.836 56.2267 121.177 56.7189Z" fill="white"/>
<path d="M124.919 64.6623L133.15 61.7591L133.581 62.9808L132.338 63.4193L132.368 63.505C132.828 63.5114 133.254 63.6663 133.646 63.9698C134.039 64.2733 134.322 64.6715 134.496 65.1645C134.528 65.2573 134.567 65.3741 134.613 65.5146C134.659 65.6552 134.69 65.7625 134.708 65.8364L133.422 66.2901C133.418 66.2434 133.4 66.1395 133.367 65.9783C133.339 65.8195 133.295 65.6561 133.236 65.4882C133.095 65.0881 132.885 64.7605 132.606 64.5054C132.332 64.2526 132.017 64.0868 131.66 64.0079C131.307 63.9314 130.945 63.9586 130.574 64.0897L125.366 65.9268L124.919 64.6623Z" fill="white"/>
<path d="M137.109 77.2593L135.979 77.3778L135.507 72.8797L136.638 72.7612L137.109 77.2593ZM138.855 73.8541L138.994 75.1877L130.722 76.0553C130.345 76.0949 130.068 76.1791 129.891 76.3081C129.718 76.4405 129.609 76.5967 129.563 76.7767C129.522 76.9601 129.511 77.1497 129.532 77.3456C129.547 77.4925 129.567 77.6123 129.592 77.7049C129.621 77.7971 129.644 77.8709 129.661 77.9262L128.491 78.3231C128.448 78.2362 128.401 78.1136 128.35 77.9551C128.295 77.7971 128.255 77.5938 128.229 77.3451C128.189 76.9684 128.232 76.5907 128.356 76.2121C128.48 75.8372 128.696 75.5137 129.002 75.2416C129.309 74.9733 129.715 74.8126 130.22 74.7597L138.855 73.8541Z" fill="white"/>
<path d="M128.184 87.5356C128.31 86.7042 128.602 86.0147 129.06 85.4673C129.521 84.9241 130.108 84.5398 130.82 84.3142C131.536 84.093 132.335 84.0493 133.219 84.183C134.103 84.3167 134.858 84.5956 135.483 85.0197C136.112 85.4481 136.571 85.9812 136.862 86.6189C137.155 87.261 137.243 87.9715 137.125 88.7505C137.057 89.2 136.915 89.6324 136.699 90.048C136.483 90.4635 136.179 90.8255 135.788 91.1341C135.4 91.4432 134.915 91.6628 134.332 91.793C133.749 91.9232 133.055 91.9274 132.25 91.8056L131.688 91.7206L132.694 85.069L133.84 85.2424L133.038 90.5457C133.525 90.6193 133.974 90.5877 134.386 90.4507C134.797 90.3175 135.139 90.0897 135.414 89.7674C135.688 89.4487 135.862 89.0497 135.934 88.5703C136.014 88.0423 135.952 87.5655 135.748 87.1401C135.548 86.719 135.255 86.374 134.871 86.1051C134.486 85.8362 134.056 85.6658 133.58 85.5938L132.816 85.4782C132.165 85.3796 131.595 85.4084 131.108 85.5645C130.624 85.725 130.234 85.9896 129.936 86.3584C129.643 86.7278 129.456 87.1803 129.375 87.7158C129.322 88.0641 129.323 88.3861 129.378 88.6817C129.436 88.9817 129.549 89.2496 129.716 89.4857C129.887 89.7223 130.114 89.9194 130.397 90.0771L129.843 91.3036C129.429 91.103 129.082 90.8186 128.8 90.4504C128.522 90.0828 128.327 89.651 128.215 89.1551C128.106 88.6597 128.095 88.1199 128.184 87.5356Z" fill="white"/>
<path d="M125.138 98.9427C125.483 98.2009 125.955 97.6436 126.555 97.2708C127.154 96.8981 127.828 96.7104 128.577 96.708C129.326 96.7055 130.096 96.8881 130.886 97.2556C131.689 97.6295 132.33 98.1072 132.807 98.6885C133.286 99.275 133.576 99.915 133.675 100.609C133.776 101.307 133.66 102.014 133.328 102.728C133.069 103.285 132.733 103.738 132.319 104.089C131.905 104.439 131.446 104.671 130.943 104.783C130.439 104.896 129.924 104.871 129.398 104.71L129.963 103.494C130.367 103.569 130.782 103.512 131.209 103.322C131.638 103.137 131.977 102.777 132.226 102.241C132.446 101.767 132.516 101.294 132.435 100.822C132.356 100.354 132.139 99.9173 131.786 99.5104C131.434 99.1085 130.959 98.7686 130.361 98.4905C129.75 98.2061 129.173 98.0546 128.63 98.036C128.086 98.0208 127.606 98.1318 127.191 98.3689C126.774 98.6094 126.453 98.97 126.23 99.4508C126.083 99.7668 126.004 100.079 125.994 100.388C125.984 100.697 126.041 100.988 126.164 101.263C126.287 101.537 126.475 101.779 126.728 101.989L126.163 103.205C125.727 102.919 125.386 102.553 125.138 102.107C124.891 101.667 124.761 101.174 124.748 100.629C124.736 100.089 124.866 99.5265 125.138 98.9427Z" fill="white"/>
<path d="M124.548 110.983L120.602 107.52L121.486 106.512L130.234 114.186L129.349 115.194L126.137 112.376L126.062 112.462C126.266 112.913 126.333 113.38 126.263 113.862C126.192 114.35 125.931 114.851 125.479 115.367C125.087 115.814 124.654 116.127 124.18 116.305C123.708 116.486 123.208 116.508 122.678 116.371C122.149 116.239 121.602 115.926 121.039 115.432L116.87 111.775L117.754 110.767L121.854 114.364C122.376 114.821 122.897 115.039 123.419 115.018C123.942 115.003 124.411 114.757 124.829 114.282C125.118 113.951 125.308 113.594 125.399 113.21C125.486 112.828 125.463 112.445 125.327 112.059C125.19 111.676 124.93 111.317 124.548 110.983Z" fill="white"/>
<path d="M103.175 123.553C103.605 123.395 104.037 123.357 104.469 123.436C104.903 123.52 105.292 123.701 105.635 123.978C105.975 124.257 106.224 124.612 106.381 125.043C106.539 125.477 106.578 125.908 106.497 126.337C106.413 126.771 106.232 127.158 105.953 127.498C105.675 127.841 105.321 128.092 104.891 128.249C104.457 128.407 104.024 128.444 103.594 128.36C103.162 128.28 102.776 128.1 102.436 127.821C102.094 127.547 101.843 127.193 101.685 126.759C101.527 126.328 101.49 125.896 101.574 125.462C101.654 125.03 101.833 124.642 102.11 124.298C102.386 123.96 102.741 123.711 103.175 123.553Z" fill="white"/>
<path d="M84.0792 136.537L82.4843 136.293L80.1178 130.434L79.983 130.414L75.9695 135.293L74.3745 135.049L79.5676 128.924L80.2946 124.184L81.6875 124.398L80.9604 129.138L84.0792 136.537Z" fill="white"/>
<path d="M69.8675 121.063C70.5793 121.401 71.1235 121.867 71.5001 122.46C71.8732 123.052 72.0659 123.724 72.078 124.476C72.0868 125.227 71.8979 126.009 71.5115 126.824C71.1219 127.645 70.6328 128.292 70.0445 128.763C69.4527 129.233 68.8095 129.51 68.1149 129.596C67.4169 129.68 66.7119 129.553 66.0001 129.215C65.2883 128.877 64.7458 128.412 64.3726 127.82C63.9961 127.227 63.8042 126.553 63.7971 125.799C63.7866 125.044 63.9761 124.255 64.3658 123.434C64.7522 122.619 65.2405 121.979 65.8307 121.513C66.4174 121.045 67.0598 120.769 67.7578 120.685C68.4524 120.599 69.1557 120.725 69.8675 121.063ZM69.3512 122.151C68.8105 121.895 68.2998 121.822 67.8192 121.934C67.3387 122.046 66.9074 122.288 66.5254 122.66C66.1433 123.032 65.8273 123.481 65.5773 124.009C65.3273 124.536 65.1781 125.066 65.1299 125.601C65.0816 126.136 65.1655 126.626 65.3814 127.073C65.5974 127.519 65.9757 127.87 66.5164 128.127C67.0571 128.383 67.5686 128.454 68.0508 128.339C68.533 128.224 68.9659 127.979 69.3495 127.603C69.7332 127.227 70.05 126.776 70.3 126.249C70.5501 125.722 70.6984 125.193 70.745 124.662C70.7916 124.13 70.7062 123.643 70.4886 123.2C70.2711 122.758 69.8919 122.408 69.3512 122.151Z" fill="white"/>
<path d="M55.6119 116.205L52.1689 120.047L51.1703 119.152L56.9946 112.653L57.9932 113.548L57.0073 114.648L57.075 114.709C57.5231 114.515 58.0116 114.447 58.5405 114.504C59.0668 114.563 59.5754 114.813 60.0662 115.253C60.4725 115.617 60.7539 116.03 60.9106 116.49C61.0648 116.954 61.0703 117.447 60.9273 117.97C60.7817 118.496 60.4612 119.035 59.9657 119.588L56.2649 123.718L55.2663 122.823L58.9065 118.761C59.3311 118.287 59.5373 117.79 59.5249 117.27C59.5097 116.748 59.2948 116.301 58.8801 115.93C58.6319 115.707 58.3225 115.544 57.9521 115.441C57.5788 115.336 57.1871 115.336 56.7771 115.441C56.3643 115.544 55.9759 115.799 55.6119 116.205Z" fill="white"/>
<path d="M53.3246 108.801L46.0172 113.573L45.3089 112.488L46.4126 111.767L46.3629 111.691C45.9144 111.794 45.4636 111.744 45.0106 111.543C44.5576 111.341 44.1883 111.021 43.9025 110.583C43.8486 110.501 43.7829 110.397 43.7053 110.271C43.6277 110.145 43.5714 110.049 43.5363 109.981L44.6781 109.235C44.6934 109.28 44.7361 109.376 44.8061 109.525C44.8709 109.673 44.952 109.821 45.0493 109.97C45.2812 110.325 45.5629 110.594 45.8942 110.776C46.2202 110.956 46.5661 111.043 46.9318 111.035C47.2923 111.025 47.6374 110.913 47.9673 110.698L52.5915 107.678L53.3246 108.801Z" fill="white"/>
<path d="M45.0193 91.3907L33.4419 92.561L32.7402 85.6191L33.9839 85.4934L34.5439 91.0333L38.4558 90.6379L37.9483 85.618L39.192 85.4923L39.6994 90.5122L44.8776 89.9887L45.0193 91.3907Z" fill="white"/>
<path d="M41.6124 73.6766L36.5381 72.7449L36.7803 71.4261L45.3641 73.0021L45.1219 74.321L43.6689 74.0542L43.6525 74.1436C44.0515 74.4249 44.3647 74.8059 44.5922 75.2867C44.816 75.7668 44.8684 76.331 44.7494 76.9793C44.6509 77.5157 44.446 77.9711 44.1346 78.3452C43.8196 78.7187 43.4017 78.9809 42.8811 79.1318C42.3567 79.282 41.7294 79.29 40.9992 79.156L35.5449 78.1545L35.787 76.8356L41.1519 77.8207C41.7778 77.9356 42.3092 77.8522 42.746 77.5704C43.1836 77.2848 43.4526 76.8683 43.5532 76.3206C43.6134 75.9927 43.5908 75.6439 43.4854 75.2741C43.3807 74.9006 43.1763 74.5665 42.8722 74.2719C42.5688 73.9735 42.1489 73.7751 41.6124 73.6766Z" fill="white"/>
<path d="M40.4892 60.7138L41.517 61.1986L39.5877 65.2891L38.5599 64.8044L40.4892 60.7138ZM37.2311 62.7202L37.8031 61.5074L45.3264 65.0558C45.669 65.2174 45.9494 65.2889 46.1676 65.2704C46.3839 65.2467 46.5584 65.1699 46.6909 65.0398C46.8217 64.9046 46.9291 64.7479 47.0131 64.5698C47.0761 64.4362 47.121 64.3233 47.1477 64.2312C47.1709 64.1375 47.1896 64.0625 47.2035 64.0063L48.4093 64.2734C48.4014 64.3702 48.3781 64.4995 48.3394 64.6614C48.3042 64.8248 48.2333 65.0196 48.1266 65.2457C47.965 65.5883 47.733 65.8893 47.4306 66.1487C47.1298 66.4047 46.7777 66.5695 46.3744 66.6432C45.9728 66.7134 45.5424 66.6402 45.0833 66.4237L37.2311 62.7202Z" fill="white"/>
<path d="M51.7672 52.7291L47.8143 49.4139L48.676 48.3865L55.3628 53.9946L54.5012 55.022L53.3693 54.0727L53.3109 54.1424C53.519 54.5839 53.6033 55.0699 53.5638 55.6003C53.5214 56.1284 53.2884 56.6449 52.8649 57.1499C52.5144 57.5678 52.1114 57.8626 51.656 58.0343C51.1976 58.2036 50.7048 58.2253 50.1775 58.0995C49.6473 57.9713 49.0978 57.6686 48.529 57.1915L44.28 53.628L45.1417 52.6006L49.321 56.1057C49.8086 56.5146 50.3119 56.7044 50.8309 56.675C51.3524 56.6427 51.792 56.4132 52.1498 55.9865C52.364 55.7311 52.5166 55.4166 52.6075 55.043C52.7008 54.6664 52.688 54.275 52.569 53.8687C52.4524 53.4595 52.1851 53.0796 51.7672 52.7291Z" fill="white"/>
<path d="M59.0999 50.2064L54.0773 43.0693L55.1367 42.3237L55.8953 43.4017L55.9697 43.3494C55.8512 42.9047 55.885 42.4525 56.071 41.9928C56.257 41.533 56.5637 41.1528 56.9912 40.8519C57.0717 40.7952 57.1735 40.7259 57.2965 40.644C57.4194 40.5621 57.5141 40.5024 57.5804 40.465L58.3652 41.5802C58.3215 41.5971 58.2265 41.6431 58.0802 41.7182C57.9349 41.7881 57.7894 41.8743 57.6438 41.9767C57.2968 42.2209 57.0383 42.5117 56.8682 42.8491C56.6989 43.1813 56.6247 43.5299 56.6455 43.8951C56.6672 44.255 56.7914 44.5961 57.0181 44.9182L60.1965 49.4347L59.0999 50.2064Z" fill="white"/>
<path d="M70.7818 43.5252C69.9926 43.8156 69.2478 43.892 68.5472 43.7543C67.849 43.6117 67.2294 43.2827 66.6886 42.7673C66.15 42.2471 65.7263 41.5675 65.4175 40.7286C65.1088 39.8896 64.9895 39.094 65.0597 38.3416C65.1322 37.5844 65.3778 36.9249 65.7967 36.363C66.2178 35.7964 66.798 35.377 67.5374 35.1048C67.964 34.9478 68.4114 34.8639 68.8796 34.853C69.3479 34.8421 69.8115 34.9339 70.2705 35.1282C70.7282 35.319 71.1545 35.6383 71.5494 36.0863C71.9444 36.5343 72.2825 37.1404 72.5638 37.9047L72.76 38.4379L66.4468 40.7615L66.0464 39.6737L71.08 37.8211C70.9099 37.359 70.6657 36.9807 70.3474 36.6861C70.0327 36.3903 69.6679 36.1996 69.253 36.1142C68.8416 36.0274 68.4084 36.0678 67.9534 36.2352C67.4522 36.4197 67.0643 36.7037 66.7898 37.0873C66.5175 37.4661 66.3562 37.8887 66.3059 38.3552C66.2556 38.8218 66.3135 39.2808 66.4797 39.7322L66.7466 40.4574C66.9742 41.0759 67.2738 41.561 67.6454 41.9126C68.0193 42.2594 68.4393 42.4741 68.9057 42.5567C69.3707 42.6358 69.8574 42.5818 70.3657 42.3948C70.6963 42.2731 70.9779 42.117 71.2105 41.9264C71.4453 41.731 71.6258 41.5031 71.752 41.2428C71.8769 40.9789 71.9403 40.6851 71.9423 40.3615L73.2836 40.2553C73.3074 40.7147 73.2258 41.1565 73.0388 41.5805C72.8504 42.001 72.5661 42.3801 72.1859 42.7178C71.8044 43.0519 71.3363 43.3211 70.7818 43.5252Z" fill="white"/>
<defs>
<filter id="filter0_b_5585_22" x="9.45462" y="5.45462" width="153.3" height="153.3" filterUnits="userSpaceOnUse" color-interpolation-filters="sRGB">
<feFlood flood-opacity="0" result="BackgroundImageFix"/>
<feGaussianBlur in="BackgroundImageFix" stdDeviation="4.77269"/>
<feComposite in2="SourceAlpha" operator="in" result="effect1_backgroundBlur_5585_22"/>
<feBlend mode="normal" in="SourceGraphic" in2="effect1_backgroundBlur_5585_22" result="shape"/>
</filter>
<filter id="filter1_d_5585_22" x="0.644142" y="0.64463" width="171.2" height="171.2" filterUnits="userSpaceOnUse" color-interpolation-filters="sRGB">
<feFlood flood-opacity="0" result="BackgroundImageFix"/>
<feColorMatrix in="SourceAlpha" type="matrix" values="0 0 0 0 0 0 0 0 0 0 0 0 0 0 0 0 0 0 127 0" result="hardAlpha"/>
<feOffset dy="4"/>
<feGaussianBlur stdDeviation="30.8"/>
<feComposite in2="hardAlpha" operator="out"/>
<feColorMatrix type="matrix" values="0 0 0 0 1 0 0 0 0 1 0 0 0 0 1 0 0 0 0.32 0"/>
<feBlend mode="normal" in2="BackgroundImageFix" result="effect1_dropShadow_5585_22"/>
<feBlend mode="normal" in="SourceGraphic" in2="effect1_dropShadow_5585_22" result="shape"/>
</filter>
</defs>
</svg>
