<svg width="31" height="32" viewBox="0 0 31 32" fill="none" xmlns="http://www.w3.org/2000/svg">
<path fill-rule="evenodd" clip-rule="evenodd" d="M16.1358 5.73758C15.9394 5.58898 15.7749 5.39793 15.6475 5.18565C15.3026 4.58596 15.3185 3.84828 15.6793 3.26451L16.8894 1.16823C17.0539 0.876342 17.2927 0.632218 17.5846 0.462393C18.1153 0.154585 18.7521 0.133357 19.2934 0.382788H19.3041L19.4314 0.451779C19.4473 0.457086 19.458 0.4677 19.4739 0.473007L29.7483 6.40627C30.348 6.75122 30.7036 7.39868 30.6823 8.08329V20.0825L30.6611 20.1037C30.6293 20.3372 30.5496 20.5601 30.4276 20.7671C30.0879 21.3562 29.4617 21.7117 28.793 21.7011H26.0864L26.0705 21.6852C25.8264 21.6534 25.5876 21.5738 25.3753 21.4517C24.8021 21.1174 24.4413 20.507 24.4413 19.8437V10.9703C24.4413 10.7103 24.298 10.4715 24.0698 10.3388L16.1411 5.75881V5.73758H16.1358Z" fill="url(#paint0_linear_1990_3620)"/>
<path fill-rule="evenodd" clip-rule="evenodd" d="M14.5528 25.5846C14.7491 25.7332 14.9137 25.9242 15.041 26.1365C15.386 26.7362 15.3701 27.4739 15.0092 28.0576L13.7992 30.1539C13.6346 30.4511 13.3958 30.6899 13.1039 30.8598C12.5786 31.1623 11.9523 31.1888 11.411 30.95H11.3951L11.2465 30.8704C11.2359 30.8704 11.2306 30.8598 11.22 30.8545L0.93493 24.9159C0.340543 24.5709 -0.0203404 23.9235 0.000887704 23.2389V11.2503L0.0221204 11.229C0.0539625 10.9902 0.133569 10.762 0.255631 10.5497C0.595281 9.96067 1.22151 9.6051 1.8902 9.61571H4.36327C4.69761 9.61571 5.02134 9.70062 5.30792 9.86514C5.88108 10.1995 6.24196 10.8098 6.24196 11.4732V20.3465C6.24196 20.6066 6.38525 20.8454 6.61345 20.9781L14.5422 25.558V25.5793L14.5528 25.5846Z" fill="url(#paint1_linear_1990_3620)"/>
<path fill-rule="evenodd" clip-rule="evenodd" d="M17.1741 15.9263C17.3491 16.0844 17.4914 16.0209 17.4914 15.7861V12.7459C17.4914 12.5112 17.6845 12.3188 17.92 12.3188H19.0814C19.3169 12.3188 19.5116 12.5112 19.5116 12.7459V18.4726C19.5116 18.7089 19.3169 18.9013 19.0814 18.9013H17.92C17.6845 18.9013 17.3475 18.7709 17.1725 18.6127L13.5035 15.2922C13.3285 15.1341 13.1862 15.196 13.1862 15.4324V18.4726C13.1862 18.7089 12.9931 18.9013 12.756 18.9013H11.5946C11.359 18.9013 11.166 18.7089 11.166 18.4726V12.7459C11.166 12.5112 11.359 12.3188 11.5946 12.3188H12.7543C12.9915 12.3188 13.3268 12.4476 13.5035 12.6074L17.1725 15.9279L17.1741 15.9263Z" fill="white"/>
<defs>
<linearGradient id="paint0_linear_1990_3620" x1="29.0265" y1="8.06737" x2="21.4905" y2="12.1379" gradientUnits="userSpaceOnUse">
<stop stop-color="#A527FE"/>
<stop offset="1" stop-color="#6438F4"/>
</linearGradient>
<linearGradient id="paint1_linear_1990_3620" x1="9.95157" y1="19.041" x2="1.63545" y2="22.7984" gradientUnits="userSpaceOnUse">
<stop stop-color="#6438F4"/>
<stop offset="1" stop-color="#A528FE"/>
</linearGradient>
</defs>
</svg>
