<svg width="25" height="24" viewBox="0 0 25 24" fill="none" xmlns="http://www.w3.org/2000/svg">
<path fill-rule="evenodd" clip-rule="evenodd" d="M12.5 16.0016C12.5 13.7916 14.2916 12 16.5017 12C14.2916 12 12.5 10.2084 12.5 7.99829C12.5 10.2084 10.7084 12 8.49832 12C10.7084 12 12.5 13.7916 12.5 16.0016Z" stroke="#6001D1" stroke-width="1.5" stroke-linecap="round" stroke-linejoin="round"/>
<path fill-rule="evenodd" clip-rule="evenodd" d="M19.4399 8.06036C19.4399 6.40282 20.7836 5.05911 22.4411 5.05911C20.7836 5.05911 19.4399 3.71541 19.4399 2.05786C19.4399 3.71541 18.0962 5.05911 16.4386 5.05911C17.2346 5.05911 17.998 5.37531 18.5608 5.93816C19.1237 6.501 19.4399 7.26438 19.4399 8.06036V8.06036Z" stroke="#6001D1" stroke-width="1.5" stroke-linecap="round" stroke-linejoin="round"/>
<path d="M21.5037 10.9995V17.002C21.5037 19.2121 19.7121 21.0037 17.502 21.0037H7.49788C5.28782 21.0037 3.49622 19.2121 3.49622 17.002V6.99788C3.49622 4.78782 5.28782 2.99622 7.49788 2.99622H13.5004" stroke="#6001D1" stroke-width="1.5" stroke-linecap="round" stroke-linejoin="round"/>
</svg>
