<svg width="32" height="32" viewBox="0 0 32 32" fill="none" xmlns="http://www.w3.org/2000/svg">
<path d="M24.7413 21.6307L22.148 24.224L20.592 22.668" stroke="#AE6BFF" stroke-width="2" stroke-linecap="round" stroke-linejoin="round"/>
<path d="M12 24H8C5.79067 24 4 22.2093 4 20V8C4 5.79067 5.79067 4 8 4H24C26.2093 4 28 5.79067 28 8V13.3333" stroke="#AE6BFF" stroke-width="2" stroke-linecap="round" stroke-linejoin="round"/>
<path d="M9.33331 15.3334H13.3333" stroke="#AE6BFF" stroke-width="2" stroke-linecap="round" stroke-linejoin="round"/>
<path d="M9.33331 9.33335H21.3333" stroke="#AE6BFF" stroke-width="2" stroke-linecap="round" stroke-linejoin="round"/>
<path fill-rule="evenodd" clip-rule="evenodd" d="M16.3667 23.752L17.252 24.9106L17.444 26.352C17.5507 27.152 18.1787 27.7813 18.9787 27.888L20.424 28.0813L21.5814 28.9666C22.2214 29.456 23.1107 29.456 23.7507 28.9666L24.9094 28.0813H24.908L26.3507 27.8893C27.1507 27.7826 27.78 27.1546 27.8867 26.3546L28.08 24.9093C28.08 24.9106 28.528 24.324 28.9654 23.752C29.4547 23.112 29.4547 22.2226 28.9654 21.5826L28.08 20.424L27.888 18.9826C27.7814 18.1826 27.1534 17.5533 26.3534 17.4466L24.908 17.2533L23.7507 16.368C23.1107 15.8786 22.2214 15.8786 21.5814 16.368L20.4227 17.2533H20.424L18.9814 17.4453C18.1814 17.552 17.552 18.18 17.4454 18.98L17.252 20.4253C17.252 20.424 16.804 21.0106 16.3667 21.5826C15.8774 22.2226 15.8774 23.1106 16.3667 23.752V23.752Z" stroke="#AE6BFF" stroke-width="2" stroke-linecap="round" stroke-linejoin="round"/>
</svg>
