<svg width="24" height="24" viewBox="0 0 24 24" fill="none" xmlns="http://www.w3.org/2000/svg">
<path d="M18.556 16.2231L16.611 18.1681L15.444 17.0011" stroke="#6001D1" stroke-width="1.5" stroke-linecap="round" stroke-linejoin="round"/>
<path d="M9 18H6C4.343 18 3 16.657 3 15V6C3 4.343 4.343 3 6 3H18C19.657 3 21 4.343 21 6V10" stroke="#6001D1" stroke-width="1.5" stroke-linecap="round" stroke-linejoin="round"/>
<path d="M7 11.5H10" stroke="#6001D1" stroke-width="1.5" stroke-linecap="round" stroke-linejoin="round"/>
<path d="M7 7H16" stroke="#6001D1" stroke-width="1.5" stroke-linecap="round" stroke-linejoin="round"/>
<path fill-rule="evenodd" clip-rule="evenodd" d="M12.275 17.8142L12.939 18.6832L13.083 19.7642C13.163 20.3642 13.634 20.8362 14.234 20.9162L15.318 21.0612L16.186 21.7252C16.666 22.0922 17.333 22.0922 17.813 21.7252L18.682 21.0612H18.681L19.763 20.9172C20.363 20.8372 20.835 20.3662 20.915 19.7662L21.06 18.6822C21.06 18.6832 21.396 18.2432 21.724 17.8142C22.091 17.3342 22.091 16.6672 21.724 16.1872L21.06 15.3182L20.916 14.2372C20.836 13.6372 20.365 13.1652 19.765 13.0852L18.681 12.9402L17.813 12.2762C17.333 11.9092 16.666 11.9092 16.186 12.2762L15.317 12.9402H15.318L14.236 13.0842C13.636 13.1642 13.164 13.6352 13.084 14.2352L12.939 15.3192C12.939 15.3182 12.603 15.7582 12.275 16.1872C11.908 16.6672 11.908 17.3332 12.275 17.8142V17.8142Z" stroke="#6001D1" stroke-width="1.5" stroke-linecap="round" stroke-linejoin="round"/>
</svg>
