<svg width="24" height="24" viewBox="0 0 24 24" fill="none" xmlns="http://www.w3.org/2000/svg">
<path d="M19.576 4.40587C20.236 5.06487 20.236 6.13387 19.576 6.79287C18.916 7.45187 17.847 7.45187 17.187 6.79287C16.527 6.13387 16.527 5.06487 17.187 4.40587C17.847 3.74687 18.916 3.74687 19.576 4.40587" stroke="#6001D1" stroke-width="1.5" stroke-linecap="round" stroke-linejoin="round"/>
<path d="M4.42402 19.5941C3.76402 18.9351 3.76402 17.8661 4.42402 17.2071C5.08402 16.5481 6.15302 16.5481 6.81302 17.2071C7.47302 17.8661 7.47302 18.9351 6.81302 19.5941C6.15302 20.2531 5.08402 20.2531 4.42402 19.5941" stroke="#6001D1" stroke-width="1.5" stroke-linecap="round" stroke-linejoin="round"/>
<path d="M6.935 19.4481C10.441 21.8301 15.253 21.4721 18.362 18.3661C20.12 16.6081 21 14.3041 21 12.0001C21 11.4681 20.968 10.9371 20.874 10.4121" stroke="#6001D1" stroke-width="1.5" stroke-linecap="round" stroke-linejoin="round"/>
<path d="M3.126 13.5879C3.032 13.0629 3 12.5319 3 11.9999C3 9.69594 3.88 7.39194 5.639 5.63394C8.747 2.52794 13.56 2.16994 17.066 4.55194" stroke="#6001D1" stroke-width="1.5" stroke-linecap="round" stroke-linejoin="round"/>
<path fill-rule="evenodd" clip-rule="evenodd" d="M12 9L15.0002 12.0002L12 15.0005L8.99977 12.0002L12 9Z" stroke="#6001D1" stroke-width="1.49999" stroke-linecap="round" stroke-linejoin="round"/>
</svg>
