<svg width="326" height="370" viewBox="0 0 326 370" fill="none" xmlns="http://www.w3.org/2000/svg">
<g clip-path="url(#clip0_232_19180)">
<path d="M275.626 64.8212C254.912 55.2612 232.699 48.2177 209.473 44.1836C209.051 44.1058 208.628 44.3003 208.41 44.6895C205.553 49.8003 202.389 56.4676 200.173 61.7081C175.193 57.9463 150.341 57.9463 125.873 61.7081C123.657 56.3509 120.377 49.8003 117.508 44.6895C117.29 44.3133 116.867 44.1187 116.445 44.1836C93.2322 48.2048 71.019 55.2483 50.2919 64.8212C50.1125 64.8991 49.9588 65.0288 49.8563 65.1974C7.72302 128.511 -3.81912 190.268 1.84306 251.26C1.86868 251.559 2.03522 251.844 2.26581 252.026C30.0643 272.56 56.9917 285.025 83.4195 293.288C83.8422 293.418 84.2906 293.262 84.5596 292.912C90.811 284.325 96.3836 275.271 101.162 265.75C101.444 265.192 101.175 264.53 100.598 264.31C91.759 260.937 83.3426 256.825 75.2464 252.155C74.6059 251.779 74.5547 250.858 75.144 250.417C76.8477 249.133 78.5515 247.797 80.1784 246.448C80.4731 246.202 80.883 246.15 81.2289 246.305C134.418 270.731 192 270.731 244.561 246.305C244.907 246.137 245.317 246.189 245.624 246.435C247.251 247.784 248.955 249.133 250.672 250.417C251.261 250.858 251.222 251.779 250.582 252.155C242.486 256.916 234.069 260.937 225.217 264.297C224.641 264.517 224.385 265.192 224.667 265.75C229.547 275.258 235.12 284.312 241.256 292.899C241.512 293.262 241.973 293.418 242.396 293.288C268.952 285.025 295.879 272.56 323.678 252.026C323.921 251.844 324.075 251.572 324.101 251.273C330.877 180.76 312.751 119.509 276.049 65.2104C275.959 65.0288 275.806 64.8991 275.626 64.8212ZM109.104 214.123C93.0913 214.123 79.8966 199.336 79.8966 181.175C79.8966 163.015 92.8351 148.228 109.104 148.228C125.502 148.228 138.568 163.145 138.312 181.175C138.312 199.336 125.373 214.123 109.104 214.123ZM217.096 214.123C201.083 214.123 187.888 199.336 187.888 181.175C187.888 163.015 200.826 148.228 217.096 148.228C233.493 148.228 246.559 163.145 246.303 181.175C246.303 199.336 233.493 214.123 217.096 214.123Z" fill="#5865F2"/>
</g>
<defs>
<clipPath id="clip0_232_19180">
<rect width="325" height="368.333" fill="white" transform="translate(0.5 0.833344)"/>
</clipPath>
</defs>
</svg>
