<svg width="326" height="250" viewBox="0 0 326 250" fill="none" xmlns="http://www.w3.org/2000/svg">
<path d="M275.626 20.8212C254.912 11.2612 232.699 4.21773 209.473 0.183599C209.051 0.10577 208.628 0.300342 208.41 0.689487C205.553 5.80025 202.389 12.4676 200.173 17.7081C175.193 13.9463 150.341 13.9463 125.873 17.7081C123.657 12.3509 120.377 5.80025 117.508 0.689487C117.29 0.313314 116.867 0.118741 116.445 0.183599C93.2322 4.20476 71.019 11.2483 50.2919 20.8212C50.1125 20.8991 49.9588 21.0288 49.8563 21.1974C7.72302 84.5112 -3.81912 146.268 1.84306 207.26C1.86868 207.559 2.03522 207.844 2.26581 208.026C30.0643 228.56 56.9917 241.025 83.4195 249.288C83.8422 249.418 84.2906 249.262 84.5596 248.912C90.811 240.325 96.3836 231.271 101.162 221.75C101.444 221.192 101.175 220.53 100.598 220.31C91.759 216.937 83.3426 212.825 75.2464 208.155C74.6059 207.779 74.5547 206.858 75.144 206.417C76.8477 205.133 78.5515 203.797 80.1784 202.448C80.4731 202.202 80.883 202.15 81.2289 202.305C134.418 226.731 192 226.731 244.561 202.305C244.907 202.137 245.317 202.189 245.624 202.435C247.251 203.784 248.955 205.133 250.672 206.417C251.261 206.858 251.222 207.779 250.582 208.155C242.486 212.916 234.069 216.937 225.217 220.297C224.641 220.517 224.385 221.192 224.667 221.75C229.547 231.258 235.12 240.312 241.256 248.899C241.512 249.262 241.973 249.418 242.396 249.288C268.952 241.025 295.879 228.56 323.678 208.026C323.921 207.844 324.075 207.572 324.101 207.273C330.877 136.76 312.751 75.509 276.049 21.2104C275.959 21.0288 275.806 20.8991 275.626 20.8212ZM109.104 170.123C93.0913 170.123 79.8966 155.336 79.8966 137.175C79.8966 119.015 92.8351 104.228 109.104 104.228C125.502 104.228 138.568 119.145 138.312 137.175C138.312 155.336 125.373 170.123 109.104 170.123ZM217.096 170.123C201.083 170.123 187.888 155.336 187.888 137.175C187.888 119.015 200.826 104.228 217.096 104.228C233.493 104.228 246.559 119.145 246.303 137.175C246.303 155.336 233.493 170.123 217.096 170.123Z" fill="#5865F2"/>
</svg>
