<svg width="25" height="24" viewBox="0 0 25 24" fill="none" xmlns="http://www.w3.org/2000/svg">
<path fill-rule="evenodd" clip-rule="evenodd" d="M15.502 16.004H9.49799C8.39299 16.004 7.49799 15.109 7.49799 14.004V10C7.49799 8.895 8.39299 8 9.49799 8H15.503C16.608 8 17.503 8.895 17.503 10V14.004C17.502 15.108 16.607 16.004 15.502 16.004Z" stroke="#6001D1" stroke-width="1.5" stroke-linecap="round" stroke-linejoin="round"/>
<path d="M18.423 20.044C19.233 19.447 19.947 18.732 20.544 17.923" stroke="#6001D1" stroke-width="1.5" stroke-linecap="round" stroke-linejoin="round"/>
<path d="M4.45599 6.07699C5.05299 5.26699 5.76799 4.55299 6.57699 3.95599" stroke="#6001D1" stroke-width="1.5" stroke-linecap="round" stroke-linejoin="round"/>
<path d="M11 21.876C11.995 22.026 13.005 22.026 14 21.876" stroke="#6001D1" stroke-width="1.5" stroke-linecap="round" stroke-linejoin="round"/>
<path d="M11 2.124C11.995 1.974 13.005 1.974 14 2.124" stroke="#6001D1" stroke-width="1.5" stroke-linecap="round" stroke-linejoin="round"/>
<path d="M4.45599 17.923C5.05299 18.733 5.76799 19.447 6.57699 20.044" stroke="#6001D1" stroke-width="1.5" stroke-linecap="round" stroke-linejoin="round"/>
<path d="M18.423 3.95599C19.233 4.55299 19.947 5.26799 20.544 6.07699" stroke="#6001D1" stroke-width="1.5" stroke-linecap="round" stroke-linejoin="round"/>
<path d="M2.624 10.5C2.474 11.495 2.474 12.505 2.624 13.5" stroke="#6001D1" stroke-width="1.5" stroke-linecap="round" stroke-linejoin="round"/>
<path d="M22.376 10.5C22.526 11.495 22.526 12.505 22.376 13.5" stroke="#6001D1" stroke-width="1.5" stroke-linecap="round" stroke-linejoin="round"/>
<path d="M7.57901 9.466L11.273 12.108C12.003 12.63 12.984 12.631 13.714 12.11L17.421 9.466" stroke="#6001D1" stroke-width="1.5" stroke-linecap="round" stroke-linejoin="round"/>
</svg>
