<svg width="24" height="24" viewBox="0 0 24 24" fill="none" xmlns="http://www.w3.org/2000/svg">
<path d="M9.5 22C5.911 22 3 19.09 3 15.5C3 11.91 5.911 9 9.5 9C13.09 9 16 11.91 16 15.5C16 19.09 13.09 22 9.5 22" stroke="#6001D1" stroke-width="1.5" stroke-linecap="round" stroke-linejoin="round"/>
<path d="M7.48 17.8334V12.8667H8.18667L10.92 16.5467L10.5533 16.62V12.8667H11.46V17.8334H10.7467L8.05333 14.1267L8.38667 14.0534V17.8334H7.48Z" fill="#6001D1"/>
<path d="M8.14398 9.144C8.76798 6.206 11.376 4 14.5 4C18.09 4 21 6.91 21 10.5C21 13.625 18.795 16.232 15.856 16.856" stroke="#6001D1" stroke-width="1.5" stroke-linecap="round" stroke-linejoin="round"/>
</svg>
