<svg width="32" height="32" viewBox="0 0 32 32" fill="none" xmlns="http://www.w3.org/2000/svg">
<path d="M12.6667 29.3333C7.88133 29.3333 4 25.4533 4 20.6667C4 15.88 7.88133 12 12.6667 12C17.4533 12 21.3333 15.88 21.3333 20.6667C21.3333 25.4533 17.4533 29.3333 12.6667 29.3333" stroke="#AE6BFF" stroke-width="2" stroke-linecap="round" stroke-linejoin="round"/>
<path d="M9.97331 23.4443V16.8221H10.9155L14.56 21.7288L14.0711 21.8266V16.8221H15.28V23.4443H14.3289L10.7378 18.5021L11.1822 18.4043V23.4443H9.97331Z" fill="#AE6BFF"/>
<path d="M10.8587 12.192C11.6907 8.27468 15.168 5.33334 19.3334 5.33334C24.12 5.33334 28 9.21334 28 14C28 18.1667 25.06 21.6427 21.1414 22.4747" stroke="#AE6BFF" stroke-width="2" stroke-linecap="round" stroke-linejoin="round"/>
</svg>
