<svg width="24" height="24" viewBox="0 0 24 24" fill="none" xmlns="http://www.w3.org/2000/svg">
<path d="M13.0004 9.99917H17.0021" stroke="#AE6BFF" stroke-width="1.5" stroke-linecap="round" stroke-linejoin="round"/>
<path d="M6.99792 9.72505L7.91731 10.5534L9.76808 8.8867" stroke="#AE6BFF" stroke-width="1.5" stroke-linecap="round" stroke-linejoin="round"/>
<path d="M10.9995 21.0037H7.9983C5.23572 21.0037 2.99622 18.7642 2.99622 16.0017V7.99833C2.99622 5.23576 5.23572 2.99625 7.9983 2.99625H16.0016C18.7642 2.99625 21.0037 5.23576 21.0037 7.99833V10.9996" stroke="#AE6BFF" stroke-width="1.5" stroke-linecap="round" stroke-linejoin="round"/>
<path d="M6.99792 14.7271L7.91731 15.5555L9.76808 13.8888" stroke="#AE6BFF" stroke-width="1.5" stroke-linecap="round" stroke-linejoin="round"/>
<path d="M15.0255 17.9225V20.2507C15.0254 20.7621 15.3144 21.2296 15.7718 21.4582L16.294 21.7193C17.0542 22.0992 17.9489 22.0992 18.709 21.7193L19.2313 21.4582C19.6887 21.2296 19.9777 20.7621 19.9776 20.2507V17.9225" stroke="#AE6BFF" stroke-width="1.5" stroke-linecap="round" stroke-linejoin="round"/>
<path fill-rule="evenodd" clip-rule="evenodd" d="M13.4156 17.116L16.5018 18.6576C17.1332 18.9726 17.8758 18.9726 18.5072 18.6576L21.5904 17.116C21.8438 16.9896 22.004 16.7308 22.004 16.4477C22.004 16.1645 21.8438 15.9057 21.5904 15.7793L18.5012 14.2377C17.8701 13.9218 17.1269 13.9218 16.4958 14.2377L13.4126 15.7793C13.1595 15.9063 12.9999 16.1654 13.0006 16.4486C13.0012 16.7318 13.1619 16.9902 13.4156 17.116V17.116Z" stroke="#AE6BFF" stroke-width="1.5" stroke-linecap="round" stroke-linejoin="round"/>
<path d="M22.0042 16.4489V18.2496" stroke="#AE6BFF" stroke-width="1.5" stroke-linecap="round" stroke-linejoin="round"/>
</svg>
