<svg width="32" height="32" viewBox="0 0 32 32" fill="none" xmlns="http://www.w3.org/2000/svg">
<path d="M12.6987 15.8959V18.9972C12.6985 19.6791 13.0838 20.3024 13.6938 20.6072L14.39 20.9554C15.4036 21.4619 16.5965 21.4619 17.61 20.9554L18.3063 20.6072C18.9163 20.3024 19.3016 19.6791 19.3014 18.9972V15.8959" stroke="#AE6BFF" stroke-width="2" stroke-linecap="round" stroke-linejoin="round"/>
<path d="M23.902 5.31818H21.457V7.76319" stroke="#AE6BFF" stroke-width="2" stroke-linecap="round" stroke-linejoin="round"/>
<path d="M16 27.4128C21.2209 27.4196 25.78 23.8808 27.0684 18.8213C28.3567 13.7618 26.0453 8.47343 21.4569 5.98248" stroke="#AE6BFF" stroke-width="2" stroke-linecap="round" stroke-linejoin="round"/>
<path d="M10.5431 24.2368V26.6818H8.09808" stroke="#AE6BFF" stroke-width="2" stroke-linecap="round" stroke-linejoin="round"/>
<path d="M10.543 26.0175C7.38034 24.3005 5.21414 21.1909 4.69958 17.6292C4.18502 14.0675 5.38254 10.4719 7.92994 7.92997V7.92997C10.0668 5.78372 12.9713 4.57822 16 4.58057" stroke="#AE6BFF" stroke-width="2" stroke-linecap="round" stroke-linejoin="round"/>
<path fill-rule="evenodd" clip-rule="evenodd" d="M10.5484 14.8209L14.6661 16.8777C15.5085 17.298 16.4994 17.298 17.3419 16.8777L21.4556 14.8209C21.7937 14.6523 22.0073 14.307 22.0073 13.9292C22.0073 13.5514 21.7937 13.2061 21.4556 13.0375L17.3338 10.9806C16.4917 10.5591 15.5002 10.5591 14.6581 10.9806L10.5484 13.0375C10.2103 13.2061 9.99658 13.5514 9.99658 13.9292C9.99658 14.307 10.2103 14.6523 10.5484 14.8209V14.8209Z" stroke="#AE6BFF" stroke-width="2" stroke-linecap="round" stroke-linejoin="round"/>
<path d="M22.0025 13.9285V16.3295" stroke="#AE6BFF" stroke-width="2" stroke-linecap="round" stroke-linejoin="round"/>
</svg>
